<?xml version="1.0" encoding="UTF-8"?>
<svg id="Layer_2" data-name="Layer 2" xmlns="http://www.w3.org/2000/svg" viewBox="0 0 427.35 283.78">
  <defs>
    <style>
      .cls-1 {
        fill: #e6e7e8;
      }
    </style>
  </defs>
  <g id="Layer_1-2" data-name="Layer 1">
    <g>
      <g>
        <path class="cls-1" d="m3.88,132.53L132.53,3.88C135.01,1.39,138.38,0,141.89,0h20.73c11.79,0,17.7,14.26,9.36,22.6l-109.93,109.93c-5.17,5.17-5.17,13.55,0,18.72l109.93,109.93c8.34,8.34,2.43,22.6-9.36,22.6h-20.73c-3.51,0-6.88-1.39-9.36-3.88L3.88,151.25c-5.17-5.17-5.17-13.55,0-18.72Z"/>
        <path class="cls-1" d="m423.47,132.53L294.82,3.88C292.33,1.39,288.97,0,285.46,0h-20.73c-11.79,0-17.7,14.26-9.36,22.6l109.93,109.93c5.17,5.17,5.17,13.55,0,18.72l-109.93,109.93c-8.34,8.34-2.43,22.6,9.36,22.6h20.73c3.51,0,6.88-1.39,9.36-3.88l128.65-128.65c5.17-5.17,5.17-13.55,0-18.72Z"/>
      </g>
      <path class="cls-1" d="m213.67,53.18c-48.99,0-88.71,39.72-88.71,88.71s39.72,88.71,88.71,88.71,88.71-39.72,88.71-88.71-39.72-88.71-88.71-88.71Zm0,129.25c-22.39,0-40.54-18.15-40.54-40.54s18.15-40.54,40.54-40.54,40.54,18.15,40.54,40.54-18.15,40.54-40.54,40.54Z"/>
    </g>
  </g>
</svg>